<svg width="1920" height="298" xmlns="http://www.w3.org/2000/svg" stroke="null" style="vector-effect: non-scaling-stroke;">
 <!-- Created with SVG Editor - http://github.com/mzalive/SVG Editor/ -->

 <g stroke="null">
  <title stroke="null">Layer 1</title>
  <g stroke="null" style="vector-effect: non-scaling-stroke;" id="svg_5">
   <path stroke="null" id="svg_4" d="m-4.172926,8.235801l85.922837,12.212833c85.922837,11.756278 257.768511,36.866775 429.614185,42.573706c171.845674,5.706931 343.691348,-5.706931 515.537023,-12.212833c171.845674,-6.049347 343.691348,-6.049347 515.537023,12.212833c171.845674,18.26218 343.691348,54.786539 515.537023,66.999371c171.845674,11.756278 343.691348,0.342416 429.614185,-6.163486l85.922837,-6.049347l0,182.621795l-85.922837,0c-85.922837,0 -257.768511,0 -429.614185,0c-171.845674,0 -343.691348,0 -515.537023,0c-171.845674,0 -343.691348,0 -515.537023,0c-171.845674,0 -343.691348,0 -515.537023,0c-171.845674,0 -343.691348,0 -429.614185,0l-85.922837,0l0,-292.194872z" fill="#026ab6"/>
  </g>
 </g>
</svg>