<svg width="39" height="38" viewBox="0 0 39 38" fill="none" xmlns="http://www.w3.org/2000/svg">
<g clip-path="url(#clip0_75_1708)">
<mask id="mask0_75_1708" style="mask-type:luminance" maskUnits="userSpaceOnUse" x="0" y="0" width="39" height="38">
<path d="M39 0H0V38H39V0Z" fill="white"/>
</mask>
<g mask="url(#mask0_75_1708)">
<path d="M38.9996 18.9996C38.9996 25.2726 33.7996 30.3996 27.2996 30.3996C20.8615 30.3996 15.5996 25.2726 15.5996 18.9996C15.5996 12.7266 20.7996 7.59961 27.2377 7.59961C33.7996 7.59961 38.9996 12.7266 38.9996 18.9996Z" fill="#FFB600"/>
<path d="M27.2996 7.59961C33.7377 7.59961 38.9996 12.7266 38.9996 18.9996C38.9996 25.2726 33.7996 30.3996 27.2996 30.3996C20.8615 30.3996 15.5996 25.2726 15.5996 18.9996" fill="#F7981D"/>
<path d="M27.3008 7.59961C33.7389 7.59961 39.0009 12.7266 39.0009 18.9996C39.0009 25.2726 33.8008 30.3996 27.3008 30.3996" fill="#FF8500"/>
<path d="M11.5762 7.59961C5.2 7.65993 0 12.7266 0 18.9996C0 25.2726 5.2 30.3996 11.7 30.3996C14.7333 30.3996 17.4571 29.2536 19.5619 27.4441C19.9952 27.0821 20.3667 26.6599 20.7381 26.2377H18.3238C18.0143 25.8758 17.7048 25.4536 17.4571 25.0917H21.6048C21.8524 24.7298 22.1 24.3075 22.2857 23.8853H16.7762C16.5905 23.5234 16.4048 23.1012 16.281 22.679H22.719C23.0905 21.5329 23.3381 20.3266 23.3381 19.0599C23.3381 18.2155 23.2143 17.4314 23.0905 16.6472H15.9095C15.9714 16.225 16.0952 15.8631 16.219 15.4409H22.6571C22.5333 15.0187 22.3476 14.5964 22.1619 14.2345H16.7143C16.9 13.8123 17.1476 13.4504 17.3952 13.0282H21.5429C21.2952 12.606 20.9857 12.1837 20.6143 11.8218H18.3238C18.6952 11.3996 19.0667 11.0377 19.5 10.6758C17.4571 8.80596 14.6714 7.72024 11.6381 7.72024C11.6381 7.59961 11.6381 7.59961 11.5762 7.59961Z" fill="#FF5050"/>
<path d="M0 19.0001C0 25.2731 5.2 30.4001 11.7 30.4001C14.7333 30.4001 17.4571 29.254 19.5619 27.4445C19.9952 27.0826 20.3667 26.6604 20.7381 26.2382H18.3238C18.0143 25.8763 17.7048 25.454 17.4571 25.0921H21.6048C21.8524 24.7302 22.1 24.308 22.2857 23.8858H16.7762C16.5905 23.5239 16.4048 23.1017 16.281 22.6794H22.719C23.0905 21.5334 23.3381 20.3271 23.3381 19.0604C23.3381 18.2159 23.2143 17.4318 23.0905 16.6477H15.9095C15.9714 16.2255 16.0952 15.8636 16.219 15.4413H22.6571C22.5333 15.0191 22.3476 14.5969 22.1619 14.235H16.7143C16.9 13.8128 17.1476 13.4509 17.3952 13.0286H21.5429C21.2952 12.6064 20.9857 12.1842 20.6143 11.8223H18.3238C18.6952 11.4001 19.0667 11.0382 19.5 10.6763C17.4571 8.80642 14.6714 7.7207 11.6381 7.7207H11.5762" fill="#E52836"/>
<path d="M11.7 30.4001C14.7333 30.4001 17.4571 29.254 19.5619 27.4445C19.9952 27.0826 20.3666 26.6604 20.7381 26.2382H18.3238C18.0143 25.8763 17.7047 25.454 17.4571 25.0921H21.6047C21.8524 24.7302 22.1 24.308 22.2857 23.8858H16.7762C16.5905 23.5239 16.4047 23.1017 16.2809 22.6794H22.719C23.0905 21.5334 23.3381 20.3271 23.3381 19.0604C23.3381 18.2159 23.2143 17.4318 23.0905 16.6477H15.9095C15.9714 16.2255 16.0952 15.8636 16.219 15.4413H22.6571C22.5333 15.0191 22.3476 14.5969 22.1619 14.235H16.7143C16.9 13.8128 17.1476 13.4509 17.3952 13.0286H21.5428C21.2952 12.6064 20.9857 12.1842 20.6143 11.8223H18.3238C18.6952 11.4001 19.0666 11.0382 19.5 10.6763C17.4571 8.80642 14.6714 7.7207 11.6381 7.7207H11.5762" fill="#CB2026"/>
<path d="M15.8479 21.8948L16.0336 20.8695C15.9717 20.8695 15.8479 20.9298 15.7241 20.9298C15.2908 20.9298 15.2289 20.6885 15.2908 20.5679L15.6622 18.4568H16.3431L16.5289 17.3107H15.9098L16.0336 16.5869H14.7955C14.7955 16.5869 14.0527 20.5679 14.0527 21.0504C14.0527 21.7742 14.486 22.0758 15.0431 22.0758C15.4146 22.0758 15.7241 21.9552 15.8479 21.8948Z" fill="white"/>
<path d="M16.2812 19.9641C16.2812 21.653 17.4575 22.0752 18.4479 22.0752C19.3765 22.0752 19.7479 21.8943 19.7479 21.8943L19.9956 20.7482C19.9956 20.7482 19.3146 21.0498 18.6956 21.0498C17.3337 21.0498 17.5813 20.0847 17.5813 20.0847H20.1194C20.1194 20.0847 20.3051 19.3006 20.3051 18.999C20.3051 18.2149 19.8718 17.2498 18.5099 17.2498C17.2099 17.1292 16.2812 18.4562 16.2812 19.9641ZM18.4479 18.2149C19.1289 18.2149 19.0051 18.999 19.0051 19.0593H17.6432C17.6432 18.999 17.767 18.2149 18.4479 18.2149Z" fill="white"/>
<path d="M26.309 21.8947L26.5566 20.5678C26.5566 20.5678 25.9376 20.8693 25.5043 20.8693C24.6376 20.8693 24.2662 20.2059 24.2662 19.482C24.2662 18.0344 25.009 17.2503 25.8757 17.2503C26.4947 17.2503 26.99 17.6122 26.99 17.6122L27.1757 16.3455C27.1757 16.3455 26.4328 16.0439 25.7519 16.0439C24.3281 16.0439 22.9043 17.2503 22.9043 19.5424C22.9043 21.0503 23.6471 22.0757 25.1328 22.0757C25.6281 22.0757 26.309 21.8947 26.309 21.8947Z" fill="white"/>
<path d="M9.03793 17.1299C8.17127 17.1299 7.55222 17.3712 7.55222 17.3712L7.3665 18.3966C7.3665 18.3966 7.92365 18.1553 8.72841 18.1553C9.16174 18.1553 9.53317 18.2156 9.53317 18.5775C9.53317 18.8188 9.47127 18.8791 9.47127 18.8791C9.47127 18.8791 9.09984 18.8791 8.91412 18.8791C7.86174 18.8791 6.68555 19.3013 6.68555 20.6886C6.68555 21.7743 7.42841 22.0156 7.86174 22.0156C8.72841 22.0156 9.09984 21.4727 9.16174 21.4727L9.09984 21.9553H10.2142L10.7094 18.6378C10.7094 17.1902 9.47127 17.1299 9.03793 17.1299ZM9.28555 19.8442C9.28555 20.0251 9.16174 20.9902 8.41888 20.9902C8.04746 20.9902 7.92365 20.6886 7.92365 20.5077C7.92365 20.2061 8.10936 19.7839 9.03793 19.7839C9.22365 19.8442 9.28555 19.8442 9.28555 19.8442Z" fill="white"/>
<path d="M11.8847 22.0154C12.1942 22.0154 13.7418 22.0757 13.7418 20.4471C13.7418 18.9392 12.2561 19.2408 12.2561 18.6376C12.2561 18.336 12.5037 18.2154 12.9371 18.2154C13.1228 18.2154 13.8037 18.2757 13.8037 18.2757L13.9895 17.19C13.9895 17.19 13.5561 17.0693 12.8133 17.0693C11.8847 17.0693 10.9561 17.4312 10.9561 18.6376C10.9561 20.0249 12.5037 19.9043 12.5037 20.4471C12.5037 20.809 12.0704 20.8693 11.7609 20.8693C11.2037 20.8693 10.6466 20.6884 10.6466 20.6884L10.4609 21.7741C10.5228 21.8947 10.8323 22.0154 11.8847 22.0154Z" fill="white"/>
<path d="M36.5852 16.1641L36.3376 17.7926C36.3376 17.7926 35.8423 17.1895 35.1614 17.1895C34.0471 17.1895 33.0566 18.5164 33.0566 20.0847C33.0566 21.0498 33.5519 22.0752 34.6042 22.0752C35.3471 22.0752 35.7804 21.5926 35.7804 21.5926L35.7185 22.0149H36.9566L37.8852 16.2244L36.5852 16.1641ZM36.0281 19.3609C36.0281 20.0244 35.7185 20.8688 35.0376 20.8688C34.6042 20.8688 34.3566 20.5069 34.3566 19.9037C34.3566 18.9387 34.79 18.3355 35.3471 18.3355C35.7804 18.3355 36.0281 18.6371 36.0281 19.3609Z" fill="white"/>
<path d="M2.29142 21.9545L3.03428 17.6117L3.15808 21.9545H4.02475L5.63428 17.6117L4.95332 21.9545H6.25332L7.2438 16.1641H5.20094L3.96285 19.7228L3.90094 16.1641H2.1057L1.11523 21.9545H2.29142Z" fill="white"/>
<path d="M21.481 21.9548C21.8525 19.9643 21.9144 18.3357 22.781 18.6373C22.9048 17.8532 23.0905 17.5516 23.2144 17.25C23.2144 17.25 23.1525 17.25 22.9667 17.25C22.4096 17.25 21.9763 17.9738 21.9763 17.9738L22.1001 17.3103H20.9239L20.1191 22.0151H21.481V21.9548Z" fill="white"/>
<path d="M29.1571 17.1299C28.2904 17.1299 27.6714 17.3712 27.6714 17.3712L27.4856 18.3966C27.4856 18.3966 28.0428 18.1553 28.8475 18.1553C29.2809 18.1553 29.6523 18.2156 29.6523 18.5775C29.6523 18.8188 29.5904 18.8791 29.5904 18.8791C29.5904 18.8791 29.219 18.8791 29.0333 18.8791C27.9809 18.8791 26.8047 19.3013 26.8047 20.6886C26.8047 21.7743 27.5475 22.0156 27.9809 22.0156C28.8475 22.0156 29.219 21.4727 29.2809 21.4727L29.219 21.9553H30.3333L30.8285 18.6378C30.8904 17.1902 29.5904 17.1299 29.1571 17.1299ZM29.4666 19.8442C29.4666 20.0251 29.3428 20.9902 28.5999 20.9902C28.2285 20.9902 28.1047 20.6886 28.1047 20.5077C28.1047 20.2061 28.2904 19.7839 29.219 19.7839C29.4047 19.8442 29.4047 19.8442 29.4666 19.8442Z" fill="white"/>
<path d="M31.8814 21.9548C32.2529 19.9643 32.3148 18.3357 33.1814 18.6373C33.3053 17.8532 33.491 17.5516 33.6148 17.25C33.6148 17.25 33.5529 17.25 33.3672 17.25C32.81 17.25 32.3767 17.9738 32.3767 17.9738L32.5005 17.3103H31.3243L30.5195 22.0151H31.8814V21.9548Z" fill="white"/>
<path d="M13.9277 21.0504C13.9277 21.7742 14.361 22.0758 14.9181 22.0758C15.3515 22.0758 15.7229 21.9552 15.8467 21.8948L16.0324 20.8695C15.9705 20.8695 15.8467 20.9298 15.7229 20.9298C15.2896 20.9298 15.2277 20.6885 15.2896 20.5679L15.661 18.4568H16.3419L16.5277 17.3107H15.9086L16.0324 16.5869" fill="#DCE5E5"/>
<path d="M16.9004 19.9641C16.9004 21.653 17.4575 22.0752 18.448 22.0752C19.3766 22.0752 19.748 21.8943 19.748 21.8943L19.9956 20.7482C19.9956 20.7482 19.3147 21.0498 18.6956 21.0498C17.3337 21.0498 17.5814 20.0847 17.5814 20.0847H20.1194C20.1194 20.0847 20.3052 19.3006 20.3052 18.999C20.3052 18.2149 19.8718 17.2498 18.5099 17.2498C17.2099 17.1292 16.9004 18.4562 16.9004 19.9641ZM18.448 18.2149C19.129 18.2149 19.2528 18.999 19.2528 19.0593H17.6433C17.6433 18.999 17.7671 18.2149 18.448 18.2149Z" fill="#DCE5E5"/>
<path d="M26.3091 21.8947L26.5567 20.5678C26.5567 20.5678 25.9377 20.8693 25.5043 20.8693C24.6377 20.8693 24.2662 20.2059 24.2662 19.482C24.2662 18.0344 25.0091 17.2503 25.8758 17.2503C26.4948 17.2503 26.99 17.6122 26.99 17.6122L27.1758 16.3455C27.1758 16.3455 26.4329 16.0439 25.752 16.0439C24.3281 16.0439 23.5234 17.2503 23.5234 19.5424C23.5234 21.0503 23.6472 22.0757 25.1329 22.0757C25.6281 22.0757 26.3091 21.8947 26.3091 21.8947Z" fill="#DCE5E5"/>
<path d="M7.3665 18.4564C7.3665 18.4564 7.92365 18.2151 8.72841 18.2151C9.16174 18.2151 9.53317 18.2754 9.53317 18.6373C9.53317 18.8786 9.47127 18.9389 9.47127 18.9389C9.47127 18.9389 9.09984 18.9389 8.91412 18.9389C7.86174 18.9389 6.68555 19.3611 6.68555 20.7484C6.68555 21.8341 7.42841 22.0754 7.86174 22.0754C8.72841 22.0754 9.09984 21.5325 9.16174 21.5325L9.09984 22.0151H10.2142L10.7094 18.6976C10.7094 17.3103 9.47127 17.25 8.97603 17.25L7.3665 18.4564ZM9.9046 19.8437C9.9046 20.0246 9.16174 20.9897 8.41888 20.9897C8.04746 20.9897 7.92365 20.6881 7.92365 20.5071C7.92365 20.2056 8.10936 19.7833 9.03793 19.7833C9.22365 19.8437 9.9046 19.8437 9.9046 19.8437Z" fill="#DCE5E5"/>
<path d="M10.5234 21.8947C10.5234 21.8947 10.8948 22.0154 11.9472 22.0154C12.2567 22.0154 13.8044 22.0757 13.8044 20.4471C13.8044 18.9392 12.3186 19.2408 12.3186 18.6376C12.3186 18.336 12.5663 18.2154 12.9996 18.2154C13.1853 18.2154 13.8663 18.2757 13.8663 18.2757L14.052 17.19C14.052 17.19 13.6186 17.0693 12.8758 17.0693C11.9472 17.0693 11.6377 17.4312 11.6377 18.6376C11.6377 20.0249 12.5663 19.9043 12.5663 20.4471C12.5663 20.809 12.1329 20.8693 11.8234 20.8693" fill="#DCE5E5"/>
<path d="M36.3383 17.7929C36.3383 17.7929 35.8431 17.1897 35.1622 17.1897C34.0479 17.1897 33.6764 18.5167 33.6764 20.0849C33.6764 21.05 33.5526 22.0754 34.605 22.0754C35.3479 22.0754 35.7812 21.5929 35.7812 21.5929L35.7193 22.0151H36.9574L37.886 16.2246L36.3383 17.7929ZM36.2764 19.3611C36.2764 20.0246 35.7193 20.8691 35.0383 20.8691C34.605 20.8691 34.3574 20.5072 34.3574 19.904C34.3574 18.9389 34.7907 18.3357 35.3479 18.3357C35.7812 18.3357 36.2764 18.6373 36.2764 19.3611Z" fill="#DCE5E5"/>
<path d="M2.29142 21.9545L3.03428 17.6117L3.15808 21.9545H4.02475L5.63428 17.6117L4.95332 21.9545H6.25332L7.2438 16.1641H5.69618L3.96285 19.7228L3.90094 16.1641H3.21999L1.11523 21.9545H2.29142Z" fill="#DCE5E5"/>
<path d="M20.1816 21.9548H21.4816C21.853 19.9643 21.9149 18.3357 22.7816 18.6373C22.9054 17.8532 23.0911 17.5516 23.2149 17.25C23.2149 17.25 23.153 17.25 22.9673 17.25C22.4102 17.25 21.9768 17.9738 21.9768 17.9738L22.1007 17.3103" fill="#DCE5E5"/>
<path d="M27.4856 18.4564C27.4856 18.4564 28.0428 18.2151 28.8475 18.2151C29.2809 18.2151 29.6523 18.2754 29.6523 18.6373C29.6523 18.8786 29.5904 18.9389 29.5904 18.9389C29.5904 18.9389 29.219 18.9389 29.0333 18.9389C27.9809 18.9389 26.8047 19.3611 26.8047 20.7484C26.8047 21.8341 27.5475 22.0754 27.9809 22.0754C28.8475 22.0754 29.219 21.5325 29.2809 21.5325L29.219 22.0151H30.3333L30.8285 18.6976C30.8285 17.3103 29.5904 17.25 29.0952 17.25L27.4856 18.4564ZM30.0237 19.8437C30.0237 20.0246 29.2809 20.9897 28.538 20.9897C28.1666 20.9897 28.0428 20.6881 28.0428 20.5071C28.0428 20.2056 28.2285 19.7833 29.1571 19.7833C29.4047 19.8437 30.0237 19.8437 30.0237 19.8437Z" fill="#DCE5E5"/>
<path d="M30.5801 21.9548H31.8801C32.2516 19.9643 32.3135 18.3357 33.1801 18.6373C33.3039 17.8532 33.4897 17.5516 33.6135 17.25C33.6135 17.25 33.5516 17.25 33.3658 17.25C32.8087 17.25 32.3754 17.9738 32.3754 17.9738L32.4992 17.3103" fill="#DCE5E5"/>
</g>
</g>
<defs>
<clipPath id="clip0_75_1708">
<rect width="39" height="38" fill="white"/>
</clipPath>
</defs>
</svg>
