<svg width="38" height="38" viewBox="0 0 38 38" fill="none" xmlns="http://www.w3.org/2000/svg">
<g clip-path="url(#clip0_75_1688)">
<mask id="mask0_75_1688" style="mask-type:luminance" maskUnits="userSpaceOnUse" x="0" y="0" width="38" height="38">
<path d="M38 0H0V38H38V0Z" fill="white"/>
</mask>
<g mask="url(#mask0_75_1688)">
<path d="M13.9336 24.4587L15.8638 13.6016H18.8797L17.0098 24.4587H13.9336Z" fill="#3C58BF"/>
<path d="M13.9336 24.4587L16.4067 13.6016H18.8797L17.0098 24.4587H13.9336Z" fill="#293688"/>
<path d="M27.9277 13.7218C27.3246 13.4805 26.3595 13.2393 25.1531 13.2393C22.1373 13.2393 19.9658 14.7472 19.9658 16.9186C19.9658 18.5472 21.4738 19.3916 22.6801 19.9345C23.8865 20.4774 24.2484 20.8393 24.2484 21.3218C24.2484 22.0456 23.2833 22.4075 22.4388 22.4075C21.2325 22.4075 20.569 22.2266 19.5436 21.8043L19.1214 21.6234L18.6992 24.0964C19.423 24.398 20.75 24.6996 22.1373 24.6996C25.3341 24.6996 27.4452 23.1916 27.4452 20.8996C27.4452 19.6329 26.6611 18.6678 24.8515 17.8837C23.7658 17.3408 23.1023 17.0393 23.1023 16.4964C23.1023 16.0139 23.6452 15.5313 24.8515 15.5313C25.8769 15.5313 26.6008 15.7123 27.1436 15.9535L27.4452 16.0742L27.9277 13.7218Z" fill="#3C58BF"/>
<path d="M27.9277 13.7218C27.3246 13.4805 26.3595 13.2393 25.1531 13.2393C22.1373 13.2393 20.5087 14.7472 20.5087 16.9186C20.5087 18.5472 21.4738 19.3916 22.6801 19.9345C23.8865 20.4774 24.2484 20.8393 24.2484 21.3218C24.2484 22.0456 23.2833 22.4075 22.4388 22.4075C21.2325 22.4075 20.569 22.2266 19.5436 21.8043L19.1214 21.6234L18.6992 24.0964C19.423 24.398 20.75 24.6996 22.1373 24.6996C25.3341 24.6996 27.4452 23.1916 27.4452 20.8996C27.4452 19.6329 26.6611 18.6678 24.8515 17.8837C23.7658 17.3408 23.1023 17.0393 23.1023 16.4964C23.1023 16.0139 23.6452 15.5313 24.8515 15.5313C25.8769 15.5313 26.6008 15.7123 27.1436 15.9535L27.4452 16.0742L27.9277 13.7218Z" fill="#293688"/>
<path d="M33.1136 13.6016C32.3898 13.6016 31.8469 13.6619 31.5453 14.3857L27.0215 24.4587H30.2787L30.8819 22.6492H34.7422L35.1041 24.4587H37.9993L35.466 13.6016H33.1136ZM31.7263 20.8397C31.9073 20.2968 32.9326 17.6428 32.9326 17.6428C32.9326 17.6428 33.1739 16.9793 33.3549 16.5571L33.5358 17.5825C33.5358 17.5825 34.139 20.2968 34.2596 20.9H31.7263V20.8397Z" fill="#3C58BF"/>
<path d="M33.8374 13.6016C33.1136 13.6016 32.5707 13.6619 32.2692 14.3857L27.0215 24.4587H30.2787L30.8819 22.6492H34.7422L35.1041 24.4587H37.9993L35.466 13.6016H33.8374ZM31.7263 20.8397C31.9676 20.2365 32.9326 17.6428 32.9326 17.6428C32.9326 17.6428 33.1739 16.9793 33.3549 16.5571L33.5358 17.5825C33.5358 17.5825 34.139 20.2968 34.2596 20.9H31.7263V20.8397Z" fill="#293688"/>
<path d="M8.38319 21.2018L8.0816 19.6335C7.53875 17.824 5.78954 15.8335 3.85938 14.8685L6.57366 24.5193H9.83081L14.7165 13.6621H11.4594L8.38319 21.2018Z" fill="#3C58BF"/>
<path d="M8.38319 21.2018L8.0816 19.6335C7.53875 17.824 5.78954 15.8335 3.85938 14.8685L6.57366 24.5193H9.83081L14.7165 13.6621H12.0625L8.38319 21.2018Z" fill="#293688"/>
<path d="M0 13.6016L0.542857 13.7222C4.40317 14.627 7.05714 16.919 8.08254 19.6333L6.99683 14.5063C6.81587 13.7825 6.27302 13.6016 5.60952 13.6016H0Z" fill="#FFBC00"/>
<path d="M0 13.6016C3.86032 14.5063 7.05714 16.8587 8.08254 19.573L7.05714 15.2905C6.87619 14.5666 6.27302 14.1444 5.60952 14.1444L0 13.6016Z" fill="#F7981D"/>
<path d="M0 13.6016C3.86032 14.5063 7.05714 16.8587 8.08254 19.573L7.35873 17.2206C7.17778 16.4968 6.93651 15.773 6.09206 15.4714L0 13.6016Z" fill="#ED7C00"/>
<path d="M11.3993 20.8394L9.3485 18.7886L8.38342 21.0806L8.14215 19.5727C7.59929 17.7632 5.85008 15.7727 3.91992 14.8076L6.63421 24.4584H9.89135L11.3993 20.8394Z" fill="#051244"/>
<path d="M17.0098 24.4587L14.4162 21.8047L13.9336 24.4587H17.0098Z" fill="#051244"/>
<path d="M23.9468 20.7188C24.1881 20.96 24.3087 21.141 24.2484 21.3822C24.2484 22.1061 23.2833 22.468 22.4388 22.468C21.2325 22.468 20.569 22.2869 19.5436 21.8647L19.1214 21.6838L18.6992 24.1567C19.423 24.4583 20.75 24.76 22.1373 24.76C24.0674 24.76 25.6357 24.2172 26.5404 23.2521L23.9468 20.7188Z" fill="#051244"/>
<path d="M27.4453 24.4582H30.2802L30.8834 22.6487H34.7437L35.1056 24.4582H38.0008L36.9754 20.0551L33.3564 16.5566L33.5373 17.5217C33.5373 17.5217 34.1405 20.236 34.2611 20.8392H31.7278C31.9691 20.236 32.9341 17.6424 32.9341 17.6424C32.9341 17.6424 33.1754 16.9789 33.3564 16.5566" fill="#051244"/>
</g>
</g>
<defs>
<clipPath id="clip0_75_1688">
<rect width="38" height="38" fill="white"/>
</clipPath>
</defs>
</svg>
